# xmcd
#
# Track frame offsets:
#	150
#	24797
#	40399
#	61484
#	82754
#	93982
#	118903
#	130375
#	143776
#	162831
#	181744
#	198013
#	212281
#	229417
#	246074
#	259865
#	273834
#	287456
#	300077
#
# Disc length: 4200 seconds
#
# Revision: 1
# Processed by: cddbd v1.5.2PL0 Copyright (c) Steve Scherf et al.
# Submitted via: audiograbber 1.83.01
#
DISCID=f3106613
DTITLE=John Lee Hooker - 16 Original Albums and Bonus Tracks, CD9: Live At Sugarh
DTITLE=ill - Bonustracks
DYEAR=1962
DGENRE=Blues
TTITLE0=I Just Can't Hold On Much Longer
TTITLE1=I'm Gonna Keep On Walking
TTITLE2=I Was Standing By The Wayside
TTITLE3=T.B. Is Killing Me
TTITLE4=Run On Babe
TTITLE5=This World
TTITLE6=I Like To See You Walking
TTITLE7=It's You I Love, Baby
TTITLE8=Driftin' And Driftin'
TTITLE9=You Gonna Miss Me
TTITLE10=Black Man Blues
TTITLE11=Stomp Boogie
TTITLE12=Goin' Mad Blues
TTITLE13=Helpless Blues
TTITLE14=Shake Your Boogie
TTITLE15=Don't Go Baby
TTITLE16=John L's House Rent Boogie
TTITLE17=Leave My Wife Alone
TTITLE18=Ramblin' By Myself
EXTD=Tracks 1-10: Live At Sugarhill\nTracks 11-19: Bonustracks
EXTT0=
EXTT1=
EXTT2=
EXTT3=
EXTT4=
EXTT5=
EXTT6=
EXTT7=
EXTT8=
EXTT9=
EXTT10=
EXTT11=
EXTT12=
EXTT13=
EXTT14=
EXTT15=
EXTT16=
EXTT17=
EXTT18=
PLAYORDER=
